HIERARCHY
ROOT Hips
{
  OFFSET -35.2597 29.1586 114.425
  CHANNELS 6 Xposition Yposition Zposition Zrotation Xrotation Yrotation
  JOINT LeftUpLeg
  {
    OFFSET 8.64259 1.95398 -2.38835
    CHANNELS 3 Zrotation Xrotation Yrotation
    JOINT LeftLeg
    {
      OFFSET 43.7702 0 0
      CHANNELS 3 Zrotation Xrotation Yrotation
      JOINT LeftFoot
      {
        OFFSET 40.6238 0 0
        CHANNELS 3 Zrotation Xrotation Yrotation
        JOINT LeftToeBase
        {
          OFFSET 12.7242 0 0
          CHANNELS 3 Zrotation Xrotation Yrotation
          End Site
          {
            OFFSET 0 0 0
          }
        }
      }
    }
  }
  JOINT RightUpLeg
  {
    OFFSET -8.2249 1.95398 -2.59336
    CHANNELS 3 Zrotation Xrotation Yrotation
    JOINT RightLeg
    {
      OFFSET 43.5653 0 0
      CHANNELS 3 Zrotation Xrotation Yrotation
      JOINT RightFoot
      {
        OFFSET 40.6238 0 0
        CHANNELS 3 Zrotation Xrotation Yrotation
        JOINT RightToeBase
        {
          OFFSET 12.7242 0 0
          CHANNELS 3 Zrotation Xrotation Yrotation
          End Site
          {
            OFFSET 0 0 0
          }
        }
      }
    }
  }
  JOINT Spine
  {
    OFFSET 0.165834 0.87714 6.61349
    CHANNELS 3 Zrotation Xrotation Yrotation
    JOINT Spine1
    {
      OFFSET 7.38963 1.71661e-005 0
      CHANNELS 3 Zrotation Xrotation Yrotation
      JOINT Spine2
      {
        OFFSET 11.9445 1.14441e-005 0
        CHANNELS 3 Zrotation Xrotation Yrotation
        JOINT Spine3
        {
          OFFSET 14.7254 4.19617e-005 0
          CHANNELS 3 Zrotation Xrotation Yrotation
          JOINT Spine4
          {
            OFFSET 10.9679 0 0
            CHANNELS 3 Zrotation Xrotation Yrotation
            JOINT RightShoulder
            {
              OFFSET 2.46616 -1.6653 3.69651
              CHANNELS 3 Zrotation Xrotation Yrotation
              JOINT RightArm
              {
                OFFSET 13.0012 0 0
                CHANNELS 3 Zrotation Xrotation Yrotation
                JOINT RightForeArm
                {
                  OFFSET 28.7848 1.62311e-005 0
                  CHANNELS 3 Zrotation Xrotation Yrotation
                  JOINT RightHand
                  {
                    OFFSET 26.5688 1.62095e-005 0
                    CHANNELS 3 Zrotation Xrotation Yrotation
                    End Site
                    {
                      OFFSET 0 0 0
                    }
                  }
                }
              }
            }
            JOINT LeftShoulder
            {
              OFFSET 2.38034 -1.29275 -3.7523
              CHANNELS 3 Zrotation Xrotation Yrotation
              JOINT LeftArm
              {
                OFFSET 16.3182 6.07031e-005 0
                CHANNELS 3 Zrotation Xrotation Yrotation
                JOINT LeftForeArm
                {
                  OFFSET 27.0901 0 0
                  CHANNELS 3 Zrotation Xrotation Yrotation
                  JOINT LeftHand
                  {
                    OFFSET 24.5451 1.51738e-005 0
                    CHANNELS 3 Zrotation Xrotation Yrotation
                    End Site
                    {
                      OFFSET 0 0 0
                    }
                  }
                }
              }
            }
            JOINT Neck
            {
              OFFSET 5.0226 -0.0266342 0
              CHANNELS 3 Zrotation Xrotation Yrotation
              JOINT Head
              {
                OFFSET 6.69364 2.86102e-005 0
                CHANNELS 3 Zrotation Xrotation Yrotation
                End Site
                {
                  OFFSET 0 0 0
                }
              }
            }
          }
        }
      }
    }
  }
}
MOTION
Frames:	16
Frame Time:	0.0416667
37.0886 100.725 26.1278 -173.412 -81.3049 -174.917 -174.657 -6.23253 88.9842 -10.9881 6.51665 0.483466 70.0829 6.45328 -2.75081 16.4085 -11.4638 7.43744 171.739 -5.98529 86.42 -11.4816 -3.01414 -0.287639 66.9029 -4.301 1.39196 26.0132 0.248558 2.88964 0.161541 8.03532 -89.9132 10.8031 0.361793 0.139091 -0.867819 0.367564 0.123027 -23.4032 0.303265 0.241388 -3.39057 0.303261 0.241383 86.0378 -35.9187 -111.839 44.3078 6.67215 -6.49606 -5.47491 -44.4594 -5.55669 -19.3926 1.96053 -17.0687 -87.6119 -55.5185 83.2215 -28.8139 -10.6591 -17.7868 3.62608 41.3653 -4.69454 0.868382 -0.252796 -10.101 3.89416 -1.67102 -3.11221 -2.14486 -1.11661 1.30137 
36.9709 100.754 26.1305 -174.681 -81.7597 -175.731 -174.25 -5.4043 89.6768 -11.613 7.14521 0.286993 70.2764 6.44178 -2.9077 16.9385 -11.6702 8.24456 172.307 -5.92091 87.1664 -10.9055 -2.9451 -0.371431 65.9396 -3.83093 0.875304 26.0244 0.0249342 3.57648 0.1455 7.98123 -89.9589 10.9113 0.308737 0.0526053 -0.75958 0.310753 0.0389475 -23.295 0.278646 0.142958 -3.28232 0.278646 0.142945 86.0202 -36.0357 -111.822 44.7311 6.48989 -6.48217 -5.47148 -44.4295 -5.55435 -20.6498 1.96627 -16.3448 -87.6421 -55.549 83.1835 -28.8708 -10.6246 -17.8309 3.67829 42.1276 -4.75075 1.15506 -0.242931 -9.32936 3.10969 -1.7329 -3.77641 -0.784427 -1.07104 2.40356 
36.9599 100.743 26.1177 -174.813 -82.1164 -176.213 -174.505 -5.25352 89.2457 -11.3065 7.10789 0.282946 70.1694 6.49379 -2.66971 16.9641 -11.6543 8.24661 172.149 -5.38846 86.8609 -11.1789 -3.05928 -0.334339 66.1809 -3.85954 0.971652 25.8378 0.350445 2.79144 0.160899 7.93721 -89.9433 10.9993 0.346611 0.0797689 -0.671616 0.349783 0.064424 -23.2071 0.30661 0.180256 -3.19441 0.306606 0.180241 86.2558 -35.9336 -111.443 44.7244 6.52327 -6.36608 -5.48638 -44.6304 -5.56376 -20.7158 1.97763 -16.3744 -87.9054 -55.6774 82.8325 -28.7317 -10.7232 -17.5971 3.65483 41.7906 -4.72563 0.969562 -0.275942 -10.7145 2.80346 -1.7687 -3.47987 -0.278164 -1.15554 2.03529 
36.9793 100.753 26.1041 -174.667 -82.1412 -176.066 -174.464 -5.2382 89.2712 -11.2593 7.11275 0.224327 70.1149 6.44042 -2.8131 16.9892 -11.6658 8.28779 172.155 -5.28603 86.8461 -11.2774 -3.12248 -0.349081 66.2024 -3.90003 0.736779 25.6939 0.219781 3.37176 0.181283 7.92719 -89.9777 11.0195 0.371243 0.00886034 -0.65139 0.371285 -0.00749795 -23.1869 0.351418 0.120022 -3.17429 0.351424 0.120025 86.5455 -35.6005 -111.06 44.4558 6.67206 -6.24632 -5.59865 -46.1077 -5.63552 -19.8448 2.00663 -17.0583 -88.118 -56.2043 82.6188 -28.6017 -10.7876 -17.6228 3.66014 41.8644 -4.7311 1.60681 -0.301465 -10.4364 2.62843 -1.81732 -3.01425 -0.240977 -1.28587 1.76861 
36.9805 100.75 26.1156 -175.004 -82.1106 -176.382 -174.463 -5.20311 89.2624 -11.4002 7.14962 0.239775 70.2367 6.56049 -2.55522 16.6326 -11.8183 8.16163 172.123 -5.35277 86.8497 -11.2691 -3.14428 -0.312609 66.1685 -3.88296 0.798749 25.841 0.220941 3.18883 0.175508 7.93141 -89.9756 11.0111 0.360738 0.0140609 -0.65983 0.361002 -0.00183719 -23.1954 0.33984 0.121826 -3.18271 0.339828 0.121818 86.4977 -35.632 -111.132 44.4404 6.67499 -6.26092 -5.60188 -46.1514 -5.6377 -19.9453 2.01359 -17.0352 -88.0271 -56.1045 82.7304 -28.6448 -10.7565 -17.7009 3.68214 42.1902 -4.75546 1.49342 -0.299199 -10.5469 2.75086 -1.77549 -3.06191 -0.377428 -1.23548 1.81911 
36.968 100.747 26.1218 -175.23 -82.039 -176.571 -174.451 -5.23599 89.33 -11.4833 7.26381 0.271616 70.2129 6.50186 -2.69644 16.9213 -11.6337 8.17528 172.121 -5.47627 86.9049 -11.1909 -3.28189 -0.283487 66.1193 -3.90836 0.599931 25.879 0.362645 2.70219 0.185961 7.93078 -89.984 11.0036 0.377688 -0.0041682 -0.667263 0.37713 -0.0207899 -23.2028 0.361467 0.109534 -3.19019 0.361479 0.109543 86.5342 -35.6488 -111.06 44.253 6.76648 -6.22311 -5.65034 -46.7641 -5.66952 -19.6255 2.02458 -17.3054 -88.1363 -56.1668 82.587 -28.4873 -10.8365 -17.7164 3.65236 41.7484 -4.72252 0.740088 -0.266297 -10.83 2.6804 -1.8928 -3.01517 -0.258164 -1.35945 1.66898 
36.9833 100.742 26.1429 -175.104 -82.0633 -176.487 -174.479 -5.29182 89.247 -11.3446 7.31417 0.257293 70.1978 6.5929 -2.37767 16.6481 -11.7889 8.13447 172.136 -5.38906 86.8458 -11.3191 -3.12314 -0.340568 66.1774 -3.88353 0.784933 25.7773 0.283517 3.07156 0.189957 7.92925 -89.9726 11.016 0.390895 0.0171153 -0.654921 0.391264 -0.000122832 -23.1905 0.367666 0.133798 -3.17786 0.367676 0.133796 86.4911 -35.7669 -111.089 44.2778 6.76347 -6.19289 -5.67139 -47.0268 -5.68348 -20.0523 2.05296 -17.1975 -88.1385 -56.0396 82.5632 -28.5209 -10.8096 -17.8028 3.67436 42.0707 -4.74648 0.422323 -0.24451 -10.6782 2.77498 -1.89496 -3.19168 -0.366285 -1.33133 1.76231 
36.9765 100.756 26.1662 -175.572 -81.9194 -176.865 -174.428 -5.39352 89.3688 -11.4555 7.30472 0.299859 70.2243 6.52771 -2.61683 16.813 -11.7495 8.23719 172.117 -5.65929 86.9195 -11.1689 -3.31304 -0.29253 65.9889 -3.78788 0.735134 26.0968 0.271819 2.71244 0.179135 7.94194 -89.9805 10.99 0.365683 0.00390722 -0.680877 0.365497 -0.0122003 -23.2164 0.347596 0.113631 -3.20377 0.347599 0.113626 86.366 -35.7774 -111.31 44.1295 6.83617 -6.16089 -5.69805 -47.3567 -5.70125 -19.7568 2.04077 -17.3133 -88.0529 -56.0937 82.6921 -28.4192 -10.8699 -17.7339 3.65914 41.8563 -4.73049 0.515305 -0.255295 -10.8932 2.77157 -1.83394 -3.22427 -0.171421 -1.26214 1.83475 
36.9832 100.745 26.1906 -176.082 -81.8552 -177.378 -174.383 -5.43072 89.3931 -11.5598 7.3825 0.264619 70.3914 6.63556 -2.52725 16.5258 -11.7376 7.94304 172.16 -5.79062 86.9093 -11.0101 -2.77245 -0.352755 66.2928 -4.08892 0.48634 25.4916 0.0790473 4.05238 0.184483 7.95443 -89.9856 10.965 0.373982 -0.00685583 -0.705854 0.373318 -0.0233119 -23.2414 0.358751 0.105864 -3.22878 0.358751 0.105864 86.5174 -35.8476 -111.009 44.277 6.72953 -6.32592 -5.62515 -46.4451 -5.65293 -19.6715 2.04937 -17.4197 -88.1427 -55.9547 82.5432 -28.646 -10.7507 -17.7483 3.65238 41.756 -4.72308 1.01541 -0.274282 -10.5781 2.94666 -1.93 -3.35405 -0.333735 -1.33144 2.04461 
36.9659 100.754 26.1937 -176.147 -81.9378 -177.495 -174.364 -5.38 89.3991 -11.4872 7.45809 0.211734 70.2225 6.52664 -2.67881 16.8249 -11.7662 8.27266 172.101 -5.60377 86.8781 -11.2946 -3.26333 -0.295935 66.0493 -3.78968 0.858897 26.0833 0.391572 2.35788 0.177562 7.94233 -89.9785 10.9892 0.363499 0.00809431 -0.681667 0.363505 -0.00792101 -23.2172 0.344258 0.116967 -3.20456 0.344265 0.116966 86.4232 -35.9002 -111.157 44.0507 6.84369 -6.26564 -5.6862 -47.2124 -5.69329 -19.7239 2.08336 -17.5851 -88.1064 -55.9864 82.5995 -28.5957 -10.7684 -17.8236 3.67603 42.093 -4.74815 0.771428 -0.252004 -10.2452 2.94276 -1.89646 -3.43676 -0.483657 -1.28744 2.12473 
36.9808 100.759 26.194 -175.903 -81.825 -177.192 -174.371 -5.4611 89.4202 -11.551 7.31715 0.266412 70.2955 6.54735 -2.67325 16.6138 -11.8222 8.14948 172.104 -5.77802 86.9109 -11.1703 -3.29643 -0.29461 66.0641 -3.86515 0.672114 25.9585 0.350682 2.64078 0.185195 7.95418 -89.9863 10.9658 0.375083 -0.00836819 -0.705063 0.374349 -0.0248741 -23.2406 0.360252 0.104748 -3.22799 0.360253 0.104741 86.4388 -35.846 -111.151 44.1782 6.78465 -6.27927 -5.62781 -46.4835 -5.65482 -19.5525 2.03641 -17.4215 -88.1203 -56.0054 82.583 -28.5809 -10.7806 -17.7841 3.66291 41.9025 -4.73392 0.937906 -0.256521 -10.0992 2.87069 -1.84228 -3.40728 -0.436791 -1.24105 2.00722 
36.9843 100.747 26.2014 -176.157 -81.8454 -177.514 -174.404 -5.47307 89.3539 -11.4953 7.54038 0.254851 70.2101 6.54827 -2.52556 16.7591 -11.6581 8.05372 172.1 -5.73528 86.8366 -11.1525 -3.01002 -0.336393 66.1728 -3.95642 0.376306 25.8859 -0.0879329 4.09343 0.186678 7.95124 -89.9837 10.9657 0.379244 -0.00356814 -0.7052 0.378722 -0.0202571 -23.2408 0.362779 0.110582 -3.22814 0.36278 0.110572 86.5012 -35.8993 -111.017 44.1525 6.80061 -6.26071 -5.64953 -46.7111 -5.66678 -19.9634 2.092 -17.4785 -88.1032 -56.1872 82.6368 -28.3983 -10.8726 -17.8082 3.67593 42.0885 -4.74781 0.573036 -0.248431 -10.5263 2.88447 -1.82216 -3.34368 -0.479254 -1.23218 1.98463 
36.9802 100.744 26.1959 -176.367 -81.8342 -177.655 -174.317 -5.50046 89.4797 -11.4971 7.545 0.213072 70.3881 6.62279 -2.70676 16.7477 -11.8489 8.3169 172.128 -5.79055 86.9419 -11.1661 -3.26976 -0.307693 66.082 -3.87567 0.563325 25.8531 0.307585 2.90488 0.178471 7.96082 -89.9876 10.9522 0.361116 -0.00951246 -0.718659 0.360355 -0.0254104 -23.2542 0.34728 0.0994657 -3.24155 0.347277 0.0994526 86.4336 -35.9859 -111.103 44.0238 6.8464 -6.30104 -5.6566 -46.8445 -5.67365 -19.6953 2.08581 -17.6186 -88.0153 -56.0439 82.7367 -28.5548 -10.7854 -17.8625 3.67794 42.1242 -4.75049 0.92401 -0.259686 -10.2441 3.04853 -1.80325 -3.40929 -0.587765 -1.19967 1.96981 
36.9949 100.754 26.1802 -175.73 -81.8706 -177.111 -174.431 -5.50025 89.293 -11.3653 7.25504 0.253576 70.2308 6.57044 -2.60293 16.5307 -11.8445 8.10078 172.092 -5.61262 86.813 -11.3277 -3.01496 -0.33999 66.1957 -3.9061 0.645297 25.7925 0.113035 3.58211 0.190466 7.95199 -89.9812 10.97 0.387911 0.000490803 -0.700923 0.387562 -0.0165925 -23.2365 0.369825 0.117047 -3.22386 0.369833 0.117059 86.4226 -36.035 -111.103 43.9385 6.89584 -6.2526 -5.67656 -46.9967 -5.68186 -19.7321 2.09606 -17.6551 -88.0552 -56.1068 82.6911 -28.3254 -10.9124 -17.7908 3.68506 42.2204 -4.75774 0.47553 -0.25084 -10.8082 3.01464 -1.75621 -3.10074 -0.63397 -1.20807 1.47977 
36.9749 100.758 26.1941 -176.88 -81.94 -178.22 -174.368 -5.352 89.404 -11.5192 7.3975 0.224725 70.2761 6.51766 -2.85442 16.8378 -11.8457 8.40061 172.093 -5.65273 86.8875 -11.2257 -3.17648 -0.281515 66.0689 -3.83797 0.716416 25.9241 0.422373 2.46252 0.17863 7.94598 -89.996 10.982 0.357517 -0.0260864 -0.68894 0.356023 -0.0418 -23.2245 0.348824 0.0825695 -3.21183 0.348829 0.0825702 86.5411 -35.8835 -110.952 44.0769 6.83487 -6.25549 -5.67244 -47.0466 -5.68442 -19.8514 2.10593 -17.633 -88.13 -56.2728 82.6132 -28.2313 -10.9404 -17.9867 3.72451 42.7812 -4.8007 0.175669 -0.220605 -10.2012 2.9193 -1.81475 -3.24611 -0.406618 -1.23929 1.86549 
36.9736 100.754 26.1861 -177.399 -81.9045 -178.663 -174.341 -5.2833 89.5022 -11.7062 7.52703 0.254221 70.2679 6.45452 -2.8685 17.0155 -11.7315 8.40817 172.147 -5.82627 86.9556 -10.9499 -2.66945 -0.292664 66.2014 -4.00665 0.651305 25.6203 0.138272 3.71155 0.17642 7.94989 -90.0054 10.9742 0.348787 -0.0438616 -0.696695 0.346513 -0.0591737 -23.2322 0.345838 0.0629946 -3.21958 0.345832 0.0629824 86.5056 -35.899 -111.009 44.1891 6.78449 -6.26139 -5.6317 -46.5278 -5.65718 -20.0437 2.06563 -17.2761 -88.1551 -56.2733 82.5783 -28.2595 -10.9348 -17.9016 3.69732 42.3995 -4.77133 0.524887 -0.244328 -10.4221 3.04992 -1.83131 -3.14762 -0.62493 -1.27207 1.7573 
